<?xml version="1.0" standalone="no"?>
<!DOCTYPE svg PUBLIC "-//W3C//DTD SVG 20010904//EN"
 "http://www.w3.org/TR/2001/REC-SVG-20010904/DTD/svg10.dtd">
<svg version="1.0" xmlns="http://www.w3.org/2000/svg"
 width="398.000000pt" height="398.000000pt" viewBox="0 0 398.000000 398.000000"
 preserveAspectRatio="xMidYMid meet">
<metadata>
Created by potrace 1.14, written by Peter Selinger 2001-2017
</metadata>
<g transform="translate(0.000000,398.000000) scale(0.100000,-0.100000)"
fill="#000000" stroke="none">
<path d="M1655 3634 c-277 -40 -503 -159 -609 -321 -19 -28 -40 -46 -64 -54
-105 -35 -189 -123 -213 -224 -7 -27 -27 -88 -45 -135 -47 -120 -60 -210 -42
-280 8 -30 13 -71 12 -90 -1 -19 -3 -66 -4 -105 -1 -67 -2 -71 -32 -90 -149
-95 -188 -419 -80 -656 51 -113 150 -221 244 -266 55 -27 57 -29 58 -68 4
-187 69 -359 192 -506 53 -63 51 -84 -9 -97 -107 -24 -140 -34 -193 -63 -102
-55 -132 -93 -100 -127 27 -29 16 -34 -135 -66 -191 -39 -277 -92 -331 -201
-25 -53 -51 -159 -56 -235 l-3 -45 1380 -2 1380 -3 -35 22 c-19 12 -91 59
-160 104 -69 45 -144 91 -167 102 -33 18 -212 79 -322 111 -14 4 -26 11 -27
17 -2 5 38 34 89 64 113 68 266 216 317 307 36 65 49 73 70 48 7 -8 18 -15 25
-15 7 0 18 -6 24 -14 7 -8 35 -20 62 -27 38 -10 51 -18 55 -36 4 -14 29 -39
60 -59 30 -20 80 -66 112 -102 95 -110 155 -167 195 -185 42 -20 41 -17 25
-106 -9 -50 -19 -71 -39 -88 -14 -13 -43 -50 -62 -83 l-36 -60 379 0 c209 0
380 4 380 8 0 5 -11 19 -25 32 -22 21 -25 30 -21 70 20 171 20 175 -7 196 -13
10 -33 24 -42 29 -17 10 -16 13 2 50 11 22 24 54 28 70 5 17 10 37 12 45 3 8
6 63 8 122 3 98 0 117 -31 222 -59 200 -70 223 -144 297 -37 38 -79 73 -94 78
-14 6 -38 28 -53 50 -27 39 -75 67 -95 55 -5 -3 -26 2 -46 12 -31 14 -43 15
-80 5 -27 -7 -49 -8 -56 -2 -14 11 -217 81 -237 81 -38 1 -41 14 -19 91 11 41
36 112 54 159 19 47 51 148 70 224 33 129 38 142 71 168 27 23 39 45 56 101
11 40 30 94 41 121 33 81 25 167 -31 350 -17 54 -31 105 -31 112 0 25 -95 199
-141 259 -93 120 -228 232 -378 313 l-75 41 45 -6 c40 -5 43 -4 29 10 -18 19
-177 98 -274 136 -140 56 -298 101 -436 126 -43 8 -354 15 -395 9z m1660
-2869 c2 -57 0 -68 -18 -80 -30 -21 -52 -19 -84 9 l-28 24 32 18 c18 11 44 38
59 62 15 23 29 40 32 37 3 -2 6 -34 7 -70z"/>
</g>
</svg>
