<!--?xml version="1.0" standalone="no"?-->
              <svg id="sw-js-blob-svg" viewBox="0 0 100 100" xmlns="http://www.w3.org/2000/svg" version="1.1">
                    <defs> 
                        <linearGradient id="sw-gradient" x1="0" x2="1" y1="1" y2="0">
                            <stop id="stop1" stop-color="rgba(62, 111, 244, 1)" offset="0%"></stop>
                            <stop id="stop2" stop-color="rgba(194.736, 145.558, 64.385, 1)" offset="100%"></stop>
                        </linearGradient>
                    </defs>
                <path fill="rgba(62, 111, 244, 1)" d="M19.2,-25.6C24.1,-22.9,26.7,-16.2,29.2,-9.3C31.6,-2.5,33.8,4.6,31.6,9.9C29.4,15.2,22.8,18.7,16.8,23.6C10.8,28.5,5.4,34.7,-0.6,35.5C-6.6,36.4,-13.2,31.9,-19,26.9C-24.8,22,-29.7,16.6,-32.8,9.9C-36,3.3,-37.4,-4.7,-34.1,-9.9C-30.8,-15.2,-22.8,-17.8,-16.3,-20C-9.9,-22.2,-4.9,-24,1.1,-25.6C7.2,-27.1,14.3,-28.3,19.2,-25.6Z" width="100%" height="100%" transform="translate(50 50)" stroke-width="0" style="transition: all 0.3s ease 0s;" stroke="url(#sw-gradient)"></path>
              </svg>