<svg width="100" height="101" viewBox="0 0 100 101" fill="none" xmlns="http://www.w3.org/2000/svg">
<rect width="55" height="63" transform="translate(23 30)" fill="white"/>
<path d="M46.7253 0.0271795C46.5103 0.0469224 45.826 0.116023 45.2102 0.16538C31.0068 1.45854 17.7028 9.19778 9.27664 21.0929C4.58456 27.7068 1.58358 35.2091 0.449658 43.1556C0.0488759 45.9295 0 46.7489 0 50.5099C0 54.2709 0.0488759 55.0903 0.449658 57.8641C3.16716 76.8272 16.5298 92.7598 34.653 98.6629C37.8983 99.7192 41.3196 100.44 45.2102 100.874C46.7253 101.042 53.2747 101.042 54.7898 100.874C61.5054 100.124 67.1945 98.4458 72.8055 95.5534C73.6657 95.1092 73.8319 94.9907 73.7146 94.892C73.6364 94.8328 69.9707 89.8675 65.5718 83.8656L57.5758 72.9576L47.5562 57.9826C42.043 49.7498 37.5073 43.0174 37.4682 43.0174C37.4291 43.0076 37.39 49.6609 37.3705 57.7852C37.3412 72.01 37.3314 72.5825 37.1554 72.9181C36.9013 73.4018 36.7058 73.5993 36.2952 73.8164C35.9824 73.9744 35.7087 74.004 34.2327 74.004H32.5415L32.0919 73.7177C31.7986 73.5302 31.5836 73.2834 31.437 72.9971L31.2317 72.5529L31.2512 52.7606L31.2805 32.9584L31.5836 32.5734C31.74 32.3661 32.0723 32.0996 32.3069 31.9713C32.7077 31.7738 32.8641 31.7541 34.5552 31.7541C36.5494 31.7541 36.8817 31.8331 37.3998 32.4056C37.5464 32.5635 42.9717 40.8161 49.4624 50.7567C55.9531 60.6972 64.8289 74.2705 69.1887 80.9338L77.1066 93.0461L77.5073 92.7795C81.0557 90.4499 84.8094 87.133 87.781 83.678C94.1056 76.3435 98.1818 67.4 99.5503 57.8641C99.9511 55.0903 100 54.2709 100 50.5099C100 46.7489 99.9511 45.9295 99.5503 43.1556C96.8328 24.1925 83.4702 8.25999 65.347 2.35685C62.1505 1.31047 58.7488 0.589853 54.9365 0.155509C53.998 0.0567939 47.5367 -0.0517923 46.7253 0.0271795ZM67.1945 30.5695C67.6637 30.8064 68.045 31.2605 68.1818 31.7343C68.26 31.991 68.2796 37.4795 68.26 49.8485L68.2307 67.5974L65.132 62.7999L62.0235 58.0023V45.1003C62.0235 36.7589 62.0626 32.07 62.1212 31.8429C62.2776 31.2901 62.6198 30.8558 63.089 30.5991C63.4897 30.3918 63.6364 30.3721 65.1711 30.3721C66.6178 30.3721 66.872 30.3918 67.1945 30.5695Z" fill="black"/>
</svg>